<svg width="17" height="17" viewBox="0 0 17 17" fill="none" xmlns="http://www.w3.org/2000/svg">
<path d="M16.8384 16.8C16.643 16.9954 16.3261 16.9954 16.1307 16.8L10.223 10.8923C9.72302 11.318 9.14802 11.6474 8.49802 11.8808C7.84802 12.1141 7.19481 12.2308 6.53839 12.2308C4.93673 12.2308 3.58118 11.6764 2.47177 10.5676C1.36233 9.45873 0.807617 8.10393 0.807617 6.50313C0.807617 4.90233 1.36203 3.54647 2.47084 2.43557C3.57966 1.32467 4.93447 0.769224 6.53527 0.769224C8.13608 0.769224 9.49193 1.32393 10.6028 2.43335C11.7137 3.54277 12.2692 4.89832 12.2692 6.5C12.2692 7.19487 12.1461 7.8673 11.8999 8.5173C11.6538 9.1673 11.3307 9.72307 10.9307 10.1846L16.8384 16.0923C17.0338 16.2877 17.0338 16.6046 16.8384 16.8ZM6.53839 11.2308C7.86532 11.2308 8.98552 10.774 9.89897 9.86057C10.8124 8.94711 11.2692 7.82692 11.2692 6.5C11.2692 5.17308 10.8124 4.05289 9.89897 3.13943C8.98552 2.22596 7.86532 1.76922 6.53839 1.76922C5.21147 1.76922 4.09128 2.22596 3.17782 3.13943C2.26437 4.05289 1.80764 5.17308 1.80764 6.5C1.80764 7.82692 2.26437 8.94711 3.17782 9.86057C4.09128 10.774 5.21147 11.2308 6.53839 11.2308Z" fill="black"/>
</svg>
